# xmcd CD database file
# 
# Track frame offsets:
# 	150
# 	16275
# 	20200
# 	35075
# 	68725
# 	86475
# 	104850
# 	122100
# 	143775
# 	168100
# 	202800
# 	225005
# 	244650
# 
# Disc length: 3488 seconds
# 
# Submitted via: Nero 5.5.4.0
# 
# Revision: 0
# Processed by: cddbd v1.4PL0 Copyright (c) Steve Scherf et al.
#
DISCID=a60d9e0d
DTITLE=Various Artist - The Real Blues
DYEAR=1900
DGENRE=
TTITLE0=Alvin Lee - Talk Don't Bother Me
TTITLE1=Steamhammer - Water (Part 1)
TTITLE2=Steamhammer - Juniors Wailing
TTITLE3=Gary Moore - Parisienne Walkway
TTITLE4=Snowy White's Blues Agency - When You Broke Your Promise
TTITLE5=Michael Pewny - My Kind Of Gospel
TTITLE6=Dana Gillespie - I'm A Woman
TTITLE7=Stan Webb's Chicken Shack - A Blues Song
TTITLE8=James "Blood" Ulmer - I Don't Know Why
TTITLE9=Steve Marriott - Five Long Years
TTITLE10=Moto Bluesband - My Blues After Hours
TTITLE11=T-Bone Walker - To Be A Slave Like Me
TTITLE12=Alvin Lee - Back In My Arms Again
EXTD=
EXTT0=
EXTT1=
EXTT2=
EXTT3=
EXTT4=
EXTT5=
EXTT6=
EXTT7=
EXTT8=
EXTT9=
EXTT10=
EXTT11=
EXTT12=
PLAYORDER=
